<?xml version="1.0" encoding="UTF-8" standalone="no"?>
<!-- Created with Inkscape (http://www.inkscape.org/) -->

<svg
   opacity="0.2"
   width="210mm"
   height="210mm"
   viewBox="0 0 210 210"
   version="1.1"
   id="svg5"
   inkscape:version="1.2 (dc2aeda, 2022-05-15)"
   sodipodi:docname="network_thumbnail.svg"
   xmlns:inkscape="http://www.inkscape.org/namespaces/inkscape"
   xmlns:sodipodi="http://sodipodi.sourceforge.net/DTD/sodipodi-0.dtd"
   xmlns="http://www.w3.org/2000/svg"
   xmlns:svg="http://www.w3.org/2000/svg">
  <sodipodi:namedview
     id="namedview7"
     pagecolor="#ffffff"
     bordercolor="#111111"
     borderopacity="1"
     inkscape:showpageshadow="0"
     inkscape:pageopacity="0"
     inkscape:pagecheckerboard="1"
     inkscape:deskcolor="#d1d1d1"
     inkscape:document-units="mm"
     showgrid="false"
     inkscape:zoom="0.39112558"
     inkscape:cx="291.46649"
     inkscape:cy="471.7155"
     inkscape:window-width="1434"
     inkscape:window-height="852"
     inkscape:window-x="0"
     inkscape:window-y="23"
     inkscape:window-maximized="0"
     inkscape:current-layer="layer1" />
  <defs
     id="defs2" />
  <g
     inkscape:label="Layer 1"
     inkscape:groupmode="layer"
     id="layer1">
    <path
       style="fill:#000000;fill-opacity:1;fill-rule:evenodd;stroke:none;stroke-width:1.99999;stroke-linecap:round;stroke-linejoin:bevel;paint-order:stroke fill markers"
       id="path184-8"
       sodipodi:type="arc"
       sodipodi:cx="144.36243"
       sodipodi:cy="108.53602"
       sodipodi:rx="10.319556"
       sodipodi:ry="10.319556"
       sodipodi:start="0"
       sodipodi:end="6.2326929"
       sodipodi:open="true"
       sodipodi:arc-type="arc"
       d="m 154.68198,108.53602 a 10.319556,10.319556 0 0 1 -10.18929,10.31873 10.319556,10.319556 0 0 1 -10.44653,-10.05823 10.319556,10.319556 0 0 1 9.92557,-10.572659 10.319556,10.319556 0 0 1 10.6971,9.791319" />
    <path
       style="fill:#000000;fill-opacity:1;fill-rule:evenodd;stroke:none;stroke-width:1.99999;stroke-linecap:round;stroke-linejoin:bevel;paint-order:stroke fill markers"
       id="path184-8-8"
       sodipodi:type="arc"
       sodipodi:cx="115.49073"
       sodipodi:cy="190.29698"
       sodipodi:rx="10.319556"
       sodipodi:ry="10.319556"
       sodipodi:start="0"
       sodipodi:end="6.2326929"
       sodipodi:open="true"
       sodipodi:arc-type="arc"
       d="m 125.81029,190.29698 a 10.319556,10.319556 0 0 1 -10.1893,10.31874 10.319556,10.319556 0 0 1 -10.44653,-10.05824 10.319556,10.319556 0 0 1 9.92557,-10.57266 10.319556,10.319556 0 0 1 10.6971,9.79132" />
    <path
       sodipodi:type="star"
       style="fill:#000000;fill-opacity:1;fill-rule:evenodd;stroke:none;stroke-width:9.43085;stroke-linecap:round;stroke-linejoin:bevel;paint-order:stroke fill markers"
       id="path1033"
       inkscape:flatsided="true"
       sodipodi:sides="4"
       sodipodi:cx="-246.66101"
       sodipodi:cy="-21.394068"
       sodipodi:r1="36.517452"
       sodipodi:r2="18.258726"
       sodipodi:arg1="1.6052654"
       sodipodi:arg2="2.3906636"
       inkscape:rounded="0"
       inkscape:randomized="0"
       d="m -247.91948,15.101693 -35.23729,-37.754234 37.75423,-35.237288 35.23729,37.754235 z"
       inkscape:transform-center-x="-0.13344526"
       inkscape:transform-center-y="1.8193496"
       transform="matrix(0.2120703,0,0,0.2120703,197.94031,154.9568)" />
    <path
       style="fill:#000000;fill-opacity:1;fill-rule:evenodd;stroke:none;stroke-width:1.99999;stroke-linecap:round;stroke-linejoin:bevel;paint-order:stroke fill markers"
       id="path184-8-5"
       sodipodi:type="arc"
       sodipodi:cx="192.97798"
       sodipodi:cy="153.29857"
       sodipodi:rx="10.319556"
       sodipodi:ry="10.319556"
       sodipodi:start="0"
       sodipodi:end="6.2326929"
       sodipodi:open="true"
       sodipodi:arc-type="arc"
       d="m 203.29754,153.29857 a 10.319556,10.319556 0 0 1 -10.1893,10.31873 10.319556,10.319556 0 0 1 -10.44653,-10.05823 10.319556,10.319556 0 0 1 9.92557,-10.57266 10.319556,10.319556 0 0 1 10.69711,9.79132" />
    <g
       id="path1182"
       transform="matrix(0.51597779,0,0,0.51597779,99.085771,96.404782)"
       style="stroke-width:1.93807">
      <path
         style="color:#000000;fill:#000000;stroke-width:1.93807;stroke-linecap:round;-inkscape-stroke:none"
         d="m 74.111328,124.22656 a 2.5,2.5 0 0 0 -1.666016,0.93946 l -23.003906,29.3457 a 2.5,2.5 0 0 0 0.425781,3.50976 2.5,2.5 0 0 0 3.509766,-0.42578 l 23.003906,-29.34375 a 2.5,2.5 0 0 0 -0.425781,-3.50976 2.5,2.5 0 0 0 -1.84375,-0.51563 z"
         id="path492" />
      <g
         id="g482"
         style="stroke-width:1.93807">
        <g
           id="path484"
           style="stroke-width:1.93807">
          <path
             style="color:#000000;fill:#000000;fill-rule:evenodd;stroke-width:2.11482pt;-inkscape-stroke:none"
             d="m 78.29733,121.75403 -1.529268,10.79454 -8.587881,-6.73204 z"
             id="path488" />
          <path
             style="color:#000000;fill:#000000;fill-rule:evenodd;stroke-width:1.93807;-inkscape-stroke:none"
             d="m 79.193359,120.60938 -1.167968,0.46875 -11.28711,4.5332 10.572266,8.28711 z m -1.792968,2.28906 -1.175782,8.29883 -6.603515,-5.17579 z"
             id="path490" />
        </g>
      </g>
    </g>
    <g
       id="path1182-7"
       inkscape:transform-center-x="-2.9344723"
       inkscape:transform-center-y="-1.6879239"
       transform="matrix(0.51597779,0,0,0.51597779,99.085771,96.404782)"
       style="stroke-width:1.93807">
      <path
         style="color:#000000;fill:#000000;stroke-width:1.93807;stroke-linecap:round;-inkscape-stroke:none"
         d="m 115.46094,102.46094 a 2.5,2.5 0 0 0 -2.51953,2.47851 2.5,2.5 0 0 0 2.47851,2.52149 l 33.2168,0.27929 a 2.5,2.5 0 0 0 2.52148,-2.47851 2.5,2.5 0 0 0 -2.47851,-2.52149 z"
         id="path454" />
      <g
         id="g444"
         style="stroke-width:1.93807">
        <g
           id="path446"
           style="stroke-width:1.93807">
          <path
             style="color:#000000;fill:#000000;fill-rule:evenodd;stroke-width:2.11482pt;-inkscape-stroke:none"
             d="m 154.95429,105.29279 -9.48439,5.37652 0.0917,-10.911622 z"
             id="path450" />
          <path
             style="color:#000000;fill:#000000;fill-rule:evenodd;stroke-width:1.93807;-inkscape-stroke:none"
             d="m 144.8457,98.490234 -0.11328,13.433596 11.67578,-6.61914 -1.08398,-0.63867 z m 1.4336,2.535156 7.2207,4.25586 -7.29297,4.13477 z"
             id="path452" />
        </g>
      </g>
    </g>
    <g
       id="path1182-8"
       transform="matrix(0.51597779,0,0,0.51597779,99.085771,96.404782)"
       style="stroke-width:1.93807">
      <path
         style="color:#000000;fill:#000000;stroke-width:1.93807;stroke-linecap:round;-inkscape-stroke:none"
         d="m 88.363281,52.451172 a 2.5,2.5 0 0 0 -2.332031,2.65625 l 1.9375,29.736328 a 2.5,2.5 0 0 0 2.658203,2.332031 2.5,2.5 0 0 0 2.332031,-2.658203 l -1.9375,-29.734375 a 2.5,2.5 0 0 0 -2.658203,-2.332031 z"
         id="path512" />
      <g
         id="g502"
         style="stroke-width:1.93807">
        <g
           id="path504"
           style="stroke-width:1.93807">
          <path
             style="color:#000000;fill:#000000;fill-rule:evenodd;stroke-width:2.11482pt;-inkscape-stroke:none"
             d="m 88.11664,48.662211 6.058157,9.06418 -10.888922,0.709475 z"
             id="path508" />
          <path
             style="color:#000000;fill:#000000;fill-rule:evenodd;stroke-width:1.93807;-inkscape-stroke:none"
             d="m 88.021484,47.210937 -0.55664,1.128907 -5.390625,10.904297 13.40625,-0.873047 z m 0.189453,2.902344 4.658204,6.96875 -8.373047,0.544922 z"
             id="path510" />
        </g>
      </g>
    </g>
  </g>
</svg>
